<svg width="527" height="450" viewBox="0 0 527 450" fill="none" xmlns="http://www.w3.org/2000/svg">
<rect x="20" y="20" width="487" height="410" rx="45" stroke="#888888" stroke-width="40"/>
<rect x="60" y="56" width="133" height="338" rx="24" fill="#888888"/>
<path d="M242 202H432C443.046 202 452 210.954 452 222V228C452 239.046 443.046 248 432 248H242V202Z" fill="#888888"/>
<path d="M273.527 214.787L323.024 264.284C330.835 272.095 330.835 284.758 323.024 292.569L318.782 296.811C310.971 304.622 298.308 304.622 290.497 296.811L241 247.314L273.527 214.787Z" fill="#888888"/>
<path d="M241 201.64L290.497 152.142C298.308 144.332 310.971 144.332 318.782 152.142L323.024 156.385C330.835 164.195 330.835 176.859 323.024 184.669L273.527 234.167L241 201.64Z" fill="#888888"/>
<path d="M232.142 238.456C224.332 230.645 224.332 217.982 232.142 210.172L246.284 196.029L274.569 224.314L246.284 252.598L232.142 238.456Z" fill="#888888"/>
</svg>
