<svg width="527" height="450" viewBox="0 0 527 450" fill="none" xmlns="http://www.w3.org/2000/svg">
<rect x="20" y="20" width="487" height="410" rx="45" stroke="#888888" stroke-width="40"/>
<rect x="60" y="56" width="133" height="338" rx="24" fill="#888888"/>
<path d="M428 246.953L238 246.953C226.954 246.953 218 237.999 218 226.953V220.953C218 209.908 226.954 200.953 238 200.953L428 200.953V246.953Z" fill="#888888"/>
<path d="M396.473 234.167L346.976 184.669C339.165 176.859 339.165 164.195 346.976 156.385L351.218 152.142C359.029 144.332 371.692 144.332 379.503 152.142L429 201.64L396.473 234.167Z" fill="#888888"/>
<path d="M429 247.314L379.503 296.811C371.692 304.622 359.029 304.622 351.218 296.811L346.976 292.569C339.165 284.758 339.165 272.095 346.976 264.284L396.473 214.787L429 247.314Z" fill="#888888"/>
<path d="M437.858 210.498C445.668 218.308 445.668 230.971 437.858 238.782L423.716 252.924L395.431 224.64L423.716 196.355L437.858 210.498Z" fill="#888888"/>
</svg>
